<svg width="200" height="48" viewBox="0 0 200 48" fill="none" xmlns="http://www.w3.org/2000/svg">
<path d="M72.0566 16.2751L68.7242 19.2273C67.5543 17.5926 66.363 16.7752 65.1503 16.7752C64.56 16.7752 64.077 16.9365 63.7014 17.2592C63.3257 17.571 63.1379 17.926 63.1379 18.3239C63.1379 18.7218 63.2721 19.0982 63.5404 19.4532C63.9053 19.9264 65.0054 20.9427 66.8406 22.5022C68.5578 23.9433 69.5989 24.8521 69.9638 25.2285C70.876 26.1535 71.52 27.0407 71.8956 27.8904C72.282 28.7293 72.4751 29.6488 72.4751 30.649C72.4751 32.5957 71.8044 34.2035 70.4628 35.4726C69.1213 36.7417 67.3719 37.3762 65.2146 37.3762C63.5297 37.3762 62.0593 36.9622 60.8036 36.134C59.5586 35.3059 58.4908 34.0046 57.6 32.23L61.3832 29.9392C62.5208 32.0364 63.8302 33.085 65.3112 33.085C66.084 33.085 66.7333 32.8592 67.2592 32.4074C67.7851 31.9557 68.048 31.4341 68.048 30.8426C68.048 30.3049 67.8495 29.7671 67.4524 29.2294C67.0553 28.6916 66.1806 27.8689 64.8283 26.7611C62.2525 24.6532 60.589 23.0292 59.8377 21.8891C59.0864 20.7384 58.7108 19.593 58.7108 18.4529C58.7108 16.8074 59.3333 15.3986 60.5782 14.2263C61.8339 13.0432 63.3794 12.4517 65.2146 12.4517C66.3952 12.4517 67.5168 12.726 68.5793 13.2745C69.6525 13.823 70.8116 14.8232 72.0566 16.2751Z" fill="black"/>
<path d="M76.854 12.7582H81.2328V19.2273H83.8408V23.0184H81.2328V36.7793H76.854V23.0184H74.6002V19.2273H76.854V12.7582Z" fill="black"/>
<path d="M87.9299 12C88.7026 12 89.3627 12.2796 89.91 12.8389C90.4681 13.3981 90.7471 14.0757 90.7471 14.8716C90.7471 15.6567 90.4735 16.3289 89.9261 16.8881C89.3787 17.4366 88.7241 17.7109 87.9621 17.7109C87.1786 17.7109 86.5078 17.4312 85.9497 16.872C85.4024 16.302 85.1287 15.6137 85.1287 14.807C85.1287 14.0327 85.4024 13.3713 85.9497 12.8228C86.4971 12.2743 87.1571 12 87.9299 12ZM85.7243 19.2273H90.1354V36.7793H85.7243V19.2273Z" fill="black"/>
<path d="M111.273 22.7764L107.619 24.793C106.932 24.0724 106.25 23.5723 105.574 23.2927C104.909 23.013 104.125 22.8732 103.224 22.8732C101.582 22.8732 100.251 23.3679 99.2311 24.3574C98.2223 25.3361 97.7179 26.5944 97.7179 28.1324C97.7179 29.6273 98.2062 30.848 99.1828 31.7944C100.159 32.7409 101.442 33.2141 103.03 33.2141C104.994 33.2141 106.524 32.5419 107.619 31.1975L111.08 33.569C109.202 36.0103 106.551 37.231 103.127 37.231C100.047 37.231 97.632 36.3169 95.8826 34.4885C94.144 32.6602 93.2746 30.52 93.2746 28.0678C93.2746 26.3686 93.6986 24.8037 94.5464 23.3733C95.3943 21.9429 96.5749 20.819 98.0881 20.0017C99.6121 19.1843 101.313 18.7756 103.191 18.7756C104.93 18.7756 106.492 19.1251 107.876 19.8242C109.261 20.5125 110.393 21.4966 111.273 22.7764Z" fill="black"/>
<path d="M115.282 12.4517H119.676V26.4707L126.148 19.2273H131.654L124.12 27.6484L132.571 36.7793H127.114L119.676 28.697V36.7793H115.282V12.4517Z" fill="black"/>
<path d="M132.427 19.2273H136.918L141.474 30.2457L146.497 19.2273H151.004L140.025 43.2H135.485L139.091 35.4726L132.427 19.2273Z" fill="black"/>
<path d="M176.34 33.3109L180.461 38.6507H175.116L173.024 35.9566C171.296 36.903 169.369 37.3762 167.244 37.3762C163.692 37.3762 160.74 36.1502 158.39 33.698C156.039 31.2352 154.864 28.3044 154.864 24.9059C154.864 22.6366 155.412 20.5555 156.506 18.6627C157.601 16.759 159.104 15.248 161.014 14.1295C162.935 13.011 164.996 12.4517 167.196 12.4517C170.555 12.4517 173.437 13.667 175.841 16.0976C178.256 18.5282 179.463 21.4912 179.463 24.9866C179.463 28.2023 178.422 30.977 176.34 33.3109ZM173.523 29.6649C174.478 28.2453 174.955 26.6751 174.955 24.9543C174.955 22.7065 174.199 20.7975 172.685 19.2273C171.172 17.6571 169.342 16.872 167.196 16.872C164.985 16.872 163.134 17.6356 161.642 19.1628C160.15 20.69 159.404 22.6312 159.404 24.9866C159.404 27.6108 160.343 29.6865 162.221 31.2137C163.692 32.4074 165.361 33.0043 167.228 33.0043C168.301 33.0043 169.31 32.7946 170.255 32.3752L166.021 26.9063H171.398L173.523 29.6649Z" fill="black"/>
<path d="M184.019 13.0486H188.8C191.419 13.0486 193.281 13.2852 194.386 13.7584C195.503 14.2209 196.399 14.9952 197.075 16.0815C197.751 17.1677 198.089 18.4529 198.089 19.9371C198.089 21.4966 197.714 22.8033 196.962 23.8573C196.222 24.9005 195.1 25.691 193.598 26.2288L199.2 36.7793H194.274L188.945 26.7289H188.527V36.7793H184.019V13.0486ZM188.527 22.3247H189.943C191.381 22.3247 192.369 22.1365 192.905 21.7601C193.453 21.3837 193.726 20.7599 193.726 19.8887C193.726 19.3725 193.592 18.9262 193.324 18.5497C193.056 18.1626 192.696 17.8883 192.245 17.727C191.795 17.5549 190.968 17.4689 189.766 17.4689H188.527V22.3247Z" fill="black"/>
<path fill-rule="evenodd" clip-rule="evenodd" d="M47.4603 31.7051C46.6694 32.3569 45.1141 32.4775 43.3074 32.6175C40.6178 32.8259 37.371 33.0775 35.2591 35.1894C33.1541 37.2944 32.8892 40.5432 32.669 43.2438C32.5231 45.0326 32.3969 46.5809 31.7684 47.397L47.4603 31.7051Z" fill="#AA3800"/>
<path d="M13.2632 0C5.93812 0 0 5.93812 0 13.2632V34.7368C0 42.0619 5.93812 48 13.2632 48H30.4421C32.2632 48 32.4361 45.8795 32.652 43.2322C32.726 42.3245 32.8051 41.3549 32.9574 40.3875C32.7114 40.4097 32.4623 40.4211 32.2105 40.4211H15.7895C11.2549 40.4211 7.57895 36.7451 7.57895 32.2105V15.7895C7.57895 11.2549 11.2549 7.57895 15.7895 7.57895H40.4211V32.2105C40.4211 32.4459 40.4111 32.679 40.3917 32.9094C41.378 32.7541 42.367 32.6775 43.2904 32.6059C45.9094 32.403 48 32.241 48 30.4421V0H13.2632Z" fill="#FF4F0F"/>
<path d="M15.1578 18.3161C15.1578 16.572 16.5717 15.1582 18.3157 15.1582H32.8421V29.6845C32.8421 31.4286 31.4282 32.8424 29.6842 32.8424H18.3157C16.5717 32.8424 15.1578 31.4286 15.1578 29.6845V18.3161Z" fill="#FF4F0F"/>
</svg>
