<svg width="22" height="20" viewBox="0 0 22 20" fill="none" xmlns="http://www.w3.org/2000/svg">
<path d="M21.674 9.60375L16.6685 1.03877C16.6011 0.922615 16.5044 0.826169 16.3881 0.75905C16.2718 0.691931 16.1399 0.656486 16.0056 0.65625H5.99439C5.86009 0.656486 5.72819 0.691931 5.61186 0.75905C5.49554 0.826169 5.39884 0.922615 5.33142 1.03877L0.325969 9.60375C0.255752 9.724 0.21875 9.86075 0.21875 10C0.21875 10.1392 0.255752 10.276 0.325969 10.3962L5.33142 18.9612C5.39884 19.0774 5.49554 19.1738 5.61186 19.2409C5.72819 19.3081 5.86009 19.3435 5.99439 19.3438H16.0056C16.1399 19.3435 16.2718 19.3081 16.3881 19.2409C16.5044 19.1738 16.6011 19.0774 16.6685 18.9612L21.674 10.3962C21.7442 10.276 21.7812 10.1392 21.7812 10C21.7812 9.86075 21.7442 9.724 21.674 9.60375ZM10.1914 4.25H11.8086V12.1562H10.1914V4.25ZM11 16.4688C10.7867 16.4688 10.5783 16.4055 10.401 16.2871C10.2237 16.1686 10.0855 16.0002 10.0039 15.8032C9.92232 15.6062 9.90097 15.3894 9.94257 15.1803C9.98417 14.9712 10.0869 14.7791 10.2376 14.6283C10.3884 14.4775 10.5805 14.3748 10.7896 14.3332C10.9988 14.2916 11.2156 14.313 11.4126 14.3946C11.6096 14.4762 11.7779 14.6144 11.8964 14.7917C12.0149 14.9689 12.0781 15.1774 12.0781 15.3906C12.0781 15.5322 12.0502 15.6724 11.996 15.8032C11.9419 15.934 11.8624 16.0529 11.7623 16.153C11.6622 16.2531 11.5434 16.3325 11.4126 16.3867C11.2818 16.4409 11.1416 16.4688 11 16.4688Z" fill="white" fill-opacity="0.8"/>
</svg>
