<svg width="22" height="22" viewBox="0 0 22 22" fill="none" xmlns="http://www.w3.org/2000/svg">
<path d="M11 0.9375C5.46562 0.9375 0.9375 5.46562 0.9375 11C0.9375 16.5344 5.46562 21.0625 11 21.0625C16.5344 21.0625 21.0625 16.5344 21.0625 11C21.0625 5.46562 16.5344 0.9375 11 0.9375ZM10.2094 5.25H11.7906V13.1562H10.2094V5.25ZM11 17.4688C10.425 17.4688 9.92188 16.9656 9.92188 16.3906C9.92188 15.8156 10.425 15.3125 11 15.3125C11.575 15.3125 12.0781 15.8156 12.0781 16.3906C12.0781 16.9656 11.575 17.4688 11 17.4688Z" fill="#DB4A39"/>
</svg>
