<svg width="32" height="32" viewBox="0 0 32 32" fill="none" xmlns="http://www.w3.org/2000/svg">
<path d="M8.39705 8.55379L8.46967 8.46967C8.73594 8.2034 9.1526 8.1792 9.44621 8.39705L9.53033 8.46967L16 14.939L22.4697 8.46967C22.7626 8.17678 23.2374 8.17678 23.5303 8.46967C23.8232 8.76256 23.8232 9.23744 23.5303 9.53033L17.061 16L23.5303 22.4697C23.7966 22.7359 23.8208 23.1526 23.6029 23.4462L23.5303 23.5303C23.2641 23.7966 22.8474 23.8208 22.5538 23.6029L22.4697 23.5303L16 17.061L9.53033 23.5303C9.23744 23.8232 8.76256 23.8232 8.46967 23.5303C8.17678 23.2374 8.17678 22.7626 8.46967 22.4697L14.939 16L8.46967 9.53033C8.2034 9.26406 8.1792 8.8474 8.39705 8.55379L8.46967 8.46967L8.39705 8.55379Z" fill="#999CA0"/>
</svg>
