<svg width="32" height="32" viewBox="0 0 32 32" fill="none" xmlns="http://www.w3.org/2000/svg">
<path d="M24 18.2856C25.8935 18.2856 27.4286 19.8207 27.4286 21.7142V22.5309C27.4286 26.6198 22.6165 29.7142 16 29.7142C9.38344 29.7142 4.57141 26.7808 4.57141 22.5309V21.7142C4.57141 19.8207 6.10643 18.2856 7.99998 18.2856H24ZM24 19.9999H7.99998C7.1089 19.9999 6.37661 20.6798 6.29354 21.5491L6.2857 21.7142V22.5309C6.2857 25.5874 10.1586 27.9999 16 27.9999C21.6297 27.9999 25.5483 25.5943 25.7091 22.7153L25.7143 22.5309V21.7142C25.7143 20.8231 25.0344 20.0908 24.1651 20.0078L24 19.9999ZM16 2.28564C19.7871 2.28564 22.8571 5.35569 22.8571 9.14279C22.8571 12.9299 19.7871 15.9999 16 15.9999C12.2129 15.9999 9.14284 12.9299 9.14284 9.14279C9.14284 5.35569 12.2129 2.28564 16 2.28564ZM16 3.99993C13.1597 3.99993 10.8571 6.30247 10.8571 9.14279C10.8571 11.9831 13.1597 14.2856 16 14.2856C18.8403 14.2856 21.1428 11.9831 21.1428 9.14279C21.1428 6.30247 18.8403 3.99993 16 3.99993Z" fill="#14142B"/>
</svg>
