<svg width="30" height="30" viewBox="0 0 30 30" fill="none" xmlns="http://www.w3.org/2000/svg">
<path d="M14.25 16.5V27H9.75C7.76177 27 6.13494 25.4527 6.00798 23.4966L6 23.25V16.5H14.25ZM24 16.5V23.25C24 25.2382 22.4527 26.8651 20.4966 26.992L20.25 27H15.75V16.5H24ZM18 3C20.0711 3 21.75 4.67893 21.75 6.75C21.75 7.59486 21.4706 8.37446 20.9992 9.00146L24 9C24.8284 9 25.5 9.67157 25.5 10.5V13.5C25.5 14.3284 24.8284 15 24 15H15.75V9H14.25V15H6C5.17157 15 4.5 14.3284 4.5 13.5V10.5C4.5 9.67157 5.17157 9 6 9L9.00082 9.00146C8.52939 8.37446 8.25 7.59486 8.25 6.75C8.25 4.67893 9.92893 3 12 3C13.2276 3 14.3174 3.58985 15.0015 4.50159C15.6826 3.58985 16.7724 3 18 3ZM18 4.5C16.7574 4.5 15.75 5.50736 15.75 6.75V9H18C19.2426 9 20.25 7.99264 20.25 6.75C20.25 5.50736 19.2426 4.5 18 4.5ZM12 4.5C10.7574 4.5 9.75 5.50736 9.75 6.75C9.75 7.91954 10.6423 8.88067 11.7833 8.9897L12 9H14.25V6.75L14.2397 6.53331C14.1307 5.39233 13.1695 4.5 12 4.5Z" fill="#FF4F0F"/>
</svg>
