<svg width="30" height="30" viewBox="0 0 30 30" fill="none" xmlns="http://www.w3.org/2000/svg">
<path d="M18 3C20.0711 3 21.75 4.67893 21.75 6.75C21.75 7.59486 21.4706 8.37446 20.9992 9.00146L24 9C24.8284 9 25.5 9.67157 25.5 10.5V15C25.5 15.8284 24.8284 16.5 24 16.5V23.25C24 25.3211 22.3211 27 20.25 27H9.75C7.67893 27 6 25.3211 6 23.25V16.5C5.17157 16.5 4.5 15.8284 4.5 15V10.5C4.5 9.67157 5.17157 9 6 9L9.00082 9.00146C8.52939 8.37446 8.25 7.59486 8.25 6.75C8.25 4.67893 9.92893 3 12 3C13.2276 3 14.3174 3.58985 15.0015 4.50159C15.6826 3.58985 16.7724 3 18 3ZM14.25 16.5H7.5V23.25C7.5 24.4926 8.50736 25.5 9.75 25.5H14.25V16.5ZM22.5 16.5H15.75V25.5H20.25C21.4926 25.5 22.5 24.4926 22.5 23.25V16.5ZM14.25 10.5H6V15H14.25V10.5ZM24 10.5H15.75V15H24V10.5ZM18 4.5C16.7574 4.5 15.75 5.50736 15.75 6.75V9H18C19.2426 9 20.25 7.99264 20.25 6.75C20.25 5.50736 19.2426 4.5 18 4.5ZM12 4.5C10.7574 4.5 9.75 5.50736 9.75 6.75C9.75 7.91954 10.6423 8.88067 11.7833 8.9897L12 9H14.25V6.75L14.2397 6.53331C14.1307 5.39233 13.1695 4.5 12 4.5Z" fill="black"/>
</svg>
