<svg width="32" height="32" viewBox="0 0 32 32" fill="none" xmlns="http://www.w3.org/2000/svg">
<path d="M14.3907 3.99573C15.3309 3.24133 16.669 3.24133 17.6092 3.99573L26.4664 11.1024C27.0746 11.5904 27.4285 12.3282 27.4285 13.108V25.9999C27.4285 27.42 26.2773 28.5713 24.8571 28.5713H21.4286C20.0084 28.5713 18.8571 27.4201 18.8571 25.9999V19.1428C18.8571 18.6694 18.4734 18.2856 18 18.2856H14C13.5266 18.2856 13.1428 18.6694 13.1428 19.1428V25.9999C13.1428 27.4201 11.9916 28.5713 10.5714 28.5713H7.14284C5.72268 28.5713 4.57141 27.4201 4.57141 25.9999V13.108C4.57141 12.3282 4.92532 11.5904 5.53359 11.1024L14.3907 3.99573ZM16.5364 5.33282C16.223 5.08135 15.777 5.08135 15.4636 5.33282L6.60642 12.4395C6.40367 12.6022 6.2857 12.8481 6.2857 13.108V25.9999C6.2857 26.4733 6.66945 26.857 7.14284 26.857H10.5714C11.0448 26.857 11.4286 26.4733 11.4286 25.9999V19.1428C11.4286 17.7226 12.5798 16.5713 14 16.5713H18C19.4201 16.5713 20.5714 17.7226 20.5714 19.1428V25.9999C20.5714 26.4733 20.9552 26.857 21.4286 26.857H24.8571C25.3305 26.857 25.7143 26.4733 25.7143 25.9999V13.108C25.7143 12.8481 25.5963 12.6022 25.3935 12.4395L16.5364 5.33282Z" fill="black"/>
</svg>
