<svg width="32" height="32" viewBox="0 0 32 32" fill="none" xmlns="http://www.w3.org/2000/svg">
<path d="M14.391 3.99748C15.3311 3.24335 16.6689 3.24335 17.609 3.99748L26.4661 11.1023C27.0745 11.5904 27.4285 12.3282 27.4285 13.1082V25.9999C27.4285 27.4201 26.2773 28.5713 24.8571 28.5713H22C20.5798 28.5713 19.4286 27.4201 19.4286 25.9999V18.5713C19.4286 18.098 19.0448 17.7142 18.5714 17.7142H13.4286C12.9552 17.7142 12.5714 18.098 12.5714 18.5713V25.9999C12.5714 27.4201 11.4201 28.5713 9.99998 28.5713H7.14284C5.72268 28.5713 4.57141 27.4201 4.57141 25.9999V13.1082C4.57141 12.3282 4.92543 11.5904 5.53384 11.1023L14.391 3.99748Z" fill="#FF4F0F"/>
</svg>
