<svg width="32" height="32" viewBox="0 0 32 32" fill="none" xmlns="http://www.w3.org/2000/svg">
<rect opacity="0.2" x="5.33331" y="5.33325" width="21.3333" height="21.3333" fill="#FF4F0F"/>
<path d="M6.66667 8C6.66667 7.26362 7.26362 6.66667 8 6.66667H10.6667C11.403 6.66667 12 6.06971 12 5.33333C12 4.59695 11.403 4 10.6667 4H8C5.79086 4 4 5.79086 4 8V10.6667C4 11.403 4.59695 12 5.33333 12C6.06971 12 6.66667 11.403 6.66667 10.6667V8ZM6.66667 24C6.66667 24.7364 7.26362 25.3333 8 25.3333H10.6667C11.403 25.3333 12 25.9303 12 26.6667C12 27.403 11.403 28 10.6667 28H8C5.79086 28 4 26.2091 4 24V21.3333C4 20.597 4.59695 20 5.33333 20C6.06971 20 6.66667 20.597 6.66667 21.3333V24ZM24 6.66667C24.7364 6.66667 25.3333 7.26362 25.3333 8V10.6667C25.3333 11.403 25.9303 12 26.6667 12C27.403 12 28 11.403 28 10.6667V8C28 5.79086 26.2091 4 24 4H21.3333C20.597 4 20 4.59695 20 5.33333C20 6.06971 20.597 6.66667 21.3333 6.66667H24ZM25.3333 24C25.3333 24.7364 24.7364 25.3333 24 25.3333H21.3333C20.597 25.3333 20 25.9303 20 26.6667C20 27.403 20.597 28 21.3333 28H24C26.2091 28 28 26.2091 28 24V21.3333C28 20.597 27.403 20 26.6667 20C25.9303 20 25.3333 20.597 25.3333 21.3333V24Z" fill="#FF4F0F"/>
<path d="M1.33333 14.6667H30.6667C31.403 14.6667 32 15.2636 32 16C32 16.6838 31.4853 17.2473 30.8222 17.3244L30.6667 17.3333H1.33333C0.596954 17.3333 0 16.7364 0 16C0 15.3162 0.51472 14.7527 1.17784 14.6756L1.33333 14.6667H30.6667H1.33333Z" fill="#FF4F0F"/>
</svg>
