<svg width="32" height="32" viewBox="0 0 32 32" fill="none" xmlns="http://www.w3.org/2000/svg">
<rect x="5.33331" y="5.33325" width="21.3333" height="21.3333" fill="white" fill-opacity="0.2"/>
<path d="M6 7.66667C6 6.74619 6.74619 6 7.66667 6H10.3333C10.8856 6 11.3333 5.55228 11.3333 5C11.3333 4.44772 10.8856 4 10.3333 4H7.66667C5.64162 4 4 5.64162 4 7.66667V10.3333C4 10.8856 4.44772 11.3333 5 11.3333C5.55228 11.3333 6 10.8856 6 10.3333V7.66667ZM6 24.3333C6 25.2538 6.74619 26 7.66667 26H10.3333C10.8856 26 11.3333 26.4477 11.3333 27C11.3333 27.5523 10.8856 28 10.3333 28H7.66667C5.64162 28 4 26.3584 4 24.3333V21.6667C4 21.1144 4.44772 20.6667 5 20.6667C5.55228 20.6667 6 21.1144 6 21.6667V24.3333ZM24.3333 6C25.2538 6 26 6.74619 26 7.66667V10.3333C26 10.8856 26.4477 11.3333 27 11.3333C27.5523 11.3333 28 10.8856 28 10.3333V7.66667C28 5.64162 26.3584 4 24.3333 4H21.6667C21.1144 4 20.6667 4.44772 20.6667 5C20.6667 5.55228 21.1144 6 21.6667 6H24.3333ZM26 24.3333C26 25.2538 25.2538 26 24.3333 26H21.6667C21.1144 26 20.6667 26.4477 20.6667 27C20.6667 27.5523 21.1144 28 21.6667 28H24.3333C26.3584 28 28 26.3584 28 24.3333V21.6667C28 21.1144 27.5523 20.6667 27 20.6667C26.4477 20.6667 26 21.1144 26 21.6667V24.3333Z" fill="#14142B"/>
<path d="M1 15.3333H31C31.5523 15.3333 32 15.781 32 16.3333C32 16.8396 31.6238 17.258 31.1357 17.3242L31 17.3333H1C0.447715 17.3333 0 16.8856 0 16.3333C0 15.8271 0.376205 15.4087 0.864306 15.3425L1 15.3333H31H1Z" fill="#14142B"/>
</svg>
