<svg width="32" height="32" viewBox="0 0 32 32" fill="none" xmlns="http://www.w3.org/2000/svg">
<g id="Add">
<path id="Shape" d="M15.7496 7C16.1293 7 16.4431 7.28201 16.4929 7.64808L16.4997 7.74985L16.501 15H23.754C24.1683 15 24.504 15.3358 24.504 15.75C24.504 16.1297 24.2219 16.4435 23.8558 16.4932L23.754 16.5H16.501L16.503 23.7491C16.5031 24.1633 16.1674 24.4993 15.7532 24.4993C15.3735 24.4993 15.0596 24.2173 15.0099 23.8512L15.003 23.7494L15.001 16.5H7.75195C7.33774 16.5 7.00195 16.1642 7.00195 15.75C7.00195 15.3703 7.28411 15.0565 7.65018 15.0068L7.75195 15H15.001L14.9997 7.75015C14.9997 7.33594 15.3354 7 15.7496 7Z" fill="black"/>
</g>
</svg>
