<svg width="25" height="24" viewBox="0 0 25 24" fill="none" xmlns="http://www.w3.org/2000/svg">
<path d="M14.4247 2.50293C15.2225 2.50293 15.9607 2.9254 16.3647 3.6133L17.1793 4.99988H19.25C21.0449 4.99988 22.5 6.45496 22.5 8.24988V17.7499C22.5 19.5448 21.0449 20.9999 19.25 20.9999H5.75C3.95507 20.9999 2.5 19.5448 2.5 17.7499V8.24988C2.5 6.45496 3.95507 4.99988 5.75 4.99988H7.83042L8.705 3.57558C9.11425 2.90908 9.84026 2.50293 10.6224 2.50293H14.4247ZM14.4247 4.00293H10.6224C10.3989 4.00293 10.1892 4.1024 10.0479 4.27072L9.98325 4.36048L8.88913 6.14233C8.75271 6.3645 8.51071 6.49988 8.25 6.49988H5.75C4.7835 6.49988 4 7.28338 4 8.24988V17.7499C4 18.7164 4.7835 19.4999 5.75 19.4999H19.25C20.2165 19.4999 21 18.7164 21 17.7499V8.24988C21 7.28338 20.2165 6.49988 19.25 6.49988H16.75C16.4841 6.49988 16.238 6.35906 16.1033 6.12976L15.0714 4.37305C14.9367 4.14375 14.6906 4.00293 14.4247 4.00293ZM12.5 7.99988C14.9853 7.99988 17 10.0146 17 12.4999C17 14.9852 14.9853 16.9999 12.5 16.9999C10.0147 16.9999 8 14.9852 8 12.4999C8 10.0146 10.0147 7.99988 12.5 7.99988ZM12.5 9.49988C10.8431 9.49988 9.5 10.843 9.5 12.4999C9.5 14.1567 10.8431 15.4999 12.5 15.4999C14.1569 15.4999 15.5 14.1567 15.5 12.4999C15.5 10.843 14.1569 9.49988 12.5 9.49988Z" fill="white"/>
</svg>
