<svg width="32" height="32" viewBox="0 0 32 32" fill="none" xmlns="http://www.w3.org/2000/svg">
<g id="Edit">
<path id="Shape" d="M25.0312 6.96997C26.4286 8.36743 26.4286 10.6332 25.0312 12.0306L13.0628 23.999C12.786 24.2758 12.4416 24.4757 12.0639 24.5787L6.94817 25.9739C6.38829 26.1266 5.87456 25.6128 6.02726 25.053L7.42244 19.9373C7.52547 19.5595 7.7253 19.2152 8.00217 18.9383L19.9705 6.96997C21.368 5.57251 23.6337 5.57251 25.0312 6.96997ZM19.001 10.0609L9.06283 19.999C8.97054 20.0913 8.90393 20.206 8.86959 20.332L7.81974 24.1814L11.6692 23.1315C11.7951 23.0972 11.9099 23.0306 12.0022 22.9383L21.94 12.9999L19.001 10.0609ZM21.0312 8.03063L20.061 8.99988L23 11.9399L23.9705 10.97C24.7822 10.1583 24.7822 8.84231 23.9705 8.03063C23.1588 7.21896 21.8428 7.21896 21.0312 8.03063Z" fill="black"/>
</g>
</svg>
