<svg width="25" height="25" viewBox="0 0 25 25" fill="none" xmlns="http://www.w3.org/2000/svg">
<g id="Clock">
<path id="Shape" d="M12.5 2.87109C18.023 2.87109 22.5 7.34909 22.5 12.8711C22.5 18.3931 18.023 22.8711 12.5 22.8711C6.977 22.8711 2.5 18.3931 2.5 12.8711C2.5 7.34909 6.977 2.87109 12.5 2.87109ZM12.5 4.53809C7.905 4.53809 4.167 8.27609 4.167 12.8711C4.167 17.4661 7.905 21.2041 12.5 21.2041C17.095 21.2041 20.833 17.4661 20.833 12.8711C20.833 8.27609 17.095 4.53809 12.5 4.53809ZM11.75 6.87109C12.1295 6.87109 12.4435 7.15343 12.4931 7.51937L12.5 7.62109V12.8711H15.75C16.164 12.8711 16.5 13.2071 16.5 13.6211C16.5 14.0006 16.2177 14.3146 15.8517 14.3642L15.75 14.3711H11.75C11.3705 14.3711 11.0565 14.0888 11.0069 13.7228L11 13.6211V7.62109C11 7.20709 11.336 6.87109 11.75 6.87109Z" fill="black"/>
</g>
</svg>
