<svg width="25" height="24" viewBox="0 0 25 24" fill="none" xmlns="http://www.w3.org/2000/svg">
<path d="M9.83996 6.37226L9.88868 6.4766L15.4488 20.9766C15.5967 21.3624 15.4099 21.7974 15.0315 21.9482C14.6847 22.0865 14.2973 21.9379 14.1212 21.6151L14.0786 21.5228L12.6456 17.7857L5.55883 17.7859L5.46479 17.7798L3.91801 21.5398C3.7609 21.9217 3.32983 22.1015 2.9552 21.9413C2.61178 21.7945 2.43499 21.4129 2.52892 21.0561L2.56133 20.9596L8.52527 6.45964C8.76582 5.87479 9.54813 5.84994 9.83996 6.37226ZM19.2452 2.00293C19.6249 2.00293 19.9387 2.28508 19.9883 2.65116L19.9952 2.75293L19.9949 7.49893L21.7452 7.4997C22.1249 7.4997 22.4387 7.78185 22.4884 8.14793L22.4952 8.2497C22.4952 8.62939 22.2131 8.94319 21.847 8.99285L21.7452 8.9997L19.9949 8.99893L19.9952 16.2497C19.9952 16.6294 19.713 16.9432 19.347 16.9929L19.2452 16.9997C18.8655 16.9997 18.5517 16.7175 18.502 16.3515L18.4952 16.2497V2.75293C18.4952 2.33872 18.831 2.00293 19.2452 2.00293ZM9.31062 8.74708L6.14846 16.2857H12.2585L9.31062 8.74708ZM11.2473 2.00293H16.745C17.1247 2.00293 17.4385 2.28508 17.4882 2.65116L17.495 2.75293V5.75663C17.495 8.10121 15.5944 10.0019 13.2498 10.0019C12.8356 10.0019 12.4998 9.66609 12.4998 9.25187C12.4998 8.83766 12.8356 8.50187 13.2498 8.50187C14.7098 8.50187 15.9036 7.36214 15.99 5.92386L15.995 5.75663V3.50293H11.2473C10.833 3.50293 10.4973 3.16714 10.4973 2.75293C10.4973 2.37323 10.7794 2.05944 11.1455 2.00978L11.2473 2.00293H16.745H11.2473Z" fill="black"/>
</svg>
