<svg width="25" height="24" viewBox="0 0 25 24" fill="none" xmlns="http://www.w3.org/2000/svg">
<path d="M12.5008 1.99609C16.5508 1.99609 19.8575 5.19084 19.9967 9.24515L20.0008 9.49609V13.5931L21.3808 16.7491C21.4499 16.907 21.4855 17.0775 21.4855 17.2499C21.4855 17.9402 20.9259 18.4999 20.2355 18.4999L15.5008 18.5014C15.5008 20.1582 14.1577 21.5014 12.5008 21.5014C10.9032 21.5014 9.59718 20.2524 9.50594 18.6776L9.50039 18.4991L4.77571 18.4999C4.60437 18.4999 4.43486 18.4646 4.27771 18.3964C3.6445 18.1213 3.35416 17.3851 3.62919 16.7519L5.00084 13.594V9.49599C5.00144 5.3412 8.35293 1.99609 12.5008 1.99609ZM14.0004 18.4991L11.0008 18.5014C11.0008 19.3298 11.6724 20.0014 12.5008 20.0014C13.2805 20.0014 13.9213 19.4065 13.994 18.6458L14.0004 18.4991ZM12.5008 3.49609C9.18068 3.49609 6.50132 6.17035 6.50084 9.49609V13.9057L5.15686 16.9999H19.8534L18.5008 13.9067L18.501 9.50895L18.4972 9.28375C18.3861 6.05027 15.7424 3.49609 12.5008 3.49609Z" fill="black"/>
</svg>
