<svg width="25" height="24" viewBox="0 0 25 24" fill="none" xmlns="http://www.w3.org/2000/svg">
<path d="M18.2545 14.0002C19.4966 14.0002 20.5034 15.007 20.5034 16.2491V16.8245C20.5034 17.7188 20.1838 18.5836 19.6023 19.263C18.0329 21.0965 15.6457 22.0013 12.5004 22.0013C9.3545 22.0013 6.96849 21.0962 5.40219 19.2619C4.82242 18.583 4.50391 17.7195 4.50391 16.8267V16.2491C4.50391 15.007 5.51076 14.0002 6.75278 14.0002H18.2545ZM18.2545 15.5002H6.75278C6.33919 15.5002 6.00391 15.8355 6.00391 16.2491V16.8267C6.00391 17.3624 6.19502 17.8805 6.54287 18.2878C7.79618 19.7555 9.76206 20.5013 12.5004 20.5013C15.2387 20.5013 17.2063 19.7555 18.4627 18.2876C18.8117 17.8799 19.0034 17.361 19.0034 16.8245V16.2491C19.0034 15.8355 18.6681 15.5002 18.2545 15.5002ZM12.5004 2.00488C15.2618 2.00488 17.5004 4.24346 17.5004 7.00488C17.5004 9.76631 15.2618 12.0049 12.5004 12.0049C9.73894 12.0049 7.50036 9.76631 7.50036 7.00488C7.50036 4.24346 9.73894 2.00488 12.5004 2.00488ZM12.5004 3.50488C10.5674 3.50488 9.00036 5.07189 9.00036 7.00488C9.00036 8.93788 10.5674 10.5049 12.5004 10.5049C14.4334 10.5049 16.0004 8.93788 16.0004 7.00488C16.0004 5.07189 14.4334 3.50488 12.5004 3.50488Z" fill="black"/>
</svg>
