<svg width="25" height="24" viewBox="0 0 25 24" fill="none" xmlns="http://www.w3.org/2000/svg">
<path d="M6.75 3C4.95507 3 3.5 4.45507 3.5 6.25V12.25C3.5 14.0449 4.95507 15.5 6.75 15.5H8V14H6.75C5.7835 14 5 13.2165 5 12.25V6.25C5 5.2835 5.7835 4.5 6.75 4.5H12.75C13.7165 4.5 14.5 5.2835 14.5 6.25V12.25C14.5 13.2165 13.7165 14 12.75 14H11.5V15.5H12.75C14.5449 15.5 16 14.0449 16 12.25V6.25C16 4.45507 14.5449 3 12.75 3H6.75ZM10.5 11.75C10.5 10.7835 11.2835 10 12.25 10H13.4982V8.5H12.25C10.4551 8.5 9 9.95507 9 11.75V17.75C9 19.5449 10.4551 21 12.25 21H18.25C20.0449 21 21.5 19.5449 21.5 17.75V11.75C21.5 9.95507 20.0449 8.5 18.25 8.5H17V10H18.25C19.2165 10 20 10.7835 20 11.75V17.75C20 18.7165 19.2165 19.5 18.25 19.5H12.25C11.2835 19.5 10.5 18.7165 10.5 17.75V11.75Z" fill="black"/>
</svg>
